<?xml version="1.0" encoding="UTF-8" standalone="no"?>
<!-- Created with Inkscape (http://www.inkscape.org/) -->

<svg
   version="1.1"
   id="svg2"
   width="3413.3333"
   height="2133.3333"
   viewBox="0 0 3413.3333 2133.3333"
   sodipodi:docname="vecteezy_abstract-handrawn-wave-shape-pastel-color_7696656.eps"
   xmlns:inkscape="http://www.inkscape.org/namespaces/inkscape"
   xmlns:sodipodi="http://sodipodi.sourceforge.net/DTD/sodipodi-0.dtd"
   xmlns="http://www.w3.org/2000/svg"
   xmlns:svg="http://www.w3.org/2000/svg">
  <defs
     id="defs6" />
  <sodipodi:namedview
     id="namedview4"
     pagecolor="#ffffff"
     bordercolor="#000000"
     borderopacity="0.25"
     inkscape:showpageshadow="2"
     inkscape:pageopacity="0.0"
     inkscape:pagecheckerboard="0"
     inkscape:deskcolor="#d1d1d1" />
  <g
     id="g8"
     inkscape:groupmode="layer"
     inkscape:label="ink_ext_XXXXXX"
     transform="matrix(1.3333333,0,0,-1.3333333,0,2133.3333)">
    <g
       id="g10"
       transform="scale(0.1)">
      <path
         d="M 25600,0 H 0 V 16000 H 25600 V 0"
         style="fill:#faf0d7;fill-opacity:1;fill-rule:nonzero;stroke:none"
         id="path12" />
      <path
         d="m -1750,8470 c 0,0 2240,-400 2440,1320 200,1720 920,3320 5040,3160 4120,-160 5760,3680 5480,4680 -280,1000 -5960,1160 -8000,1160 -2040,0 -4960,0 -4960,0 l -1920,-2280 1920,-8040"
         style="fill:#ffd9c0;fill-opacity:1;fill-rule:nonzero;stroke:none"
         id="path14" />
      <path
         d="m 12640,16106.8 c 0,0 815.2,-2130.9 2504.4,-1315.3 1689.2,815.6 3542.7,1121 5572.2,-2468.7 2029.5,-3589.65 6431.3,-2782.03 7204,-1971.4 772.7,810.7 -2081,5724.8 -3158.9,7456.8 -1077.8,1732 -2620.6,4211.2 -2620.6,4211.2 l -3113.5,323.9 -6387.6,-6236.5"
         style="fill:#f4bfbf;fill-opacity:1;fill-rule:nonzero;stroke:none"
         id="path16" />
      <path
         d="m 12485.9,-375.801 c 0,0 1090.8,3222.801 4158.4,2055.201 3042.6,-1158.099 5728.2,-418.6 6106.5,2071.5 378.4,2490.18 4411.5,2054.1 6088.5,895.3 1677,-1158.9 -7210.1,-10946.2 -4011.7,-8608.3"
         style="fill:#ffd9c0;fill-opacity:1;fill-rule:nonzero;stroke:none"
         id="path18" />
      <path
         d="m -4781.48,5515.7 c 0,0 2836.98,1878.46 4545.64,-924 C 1458.89,1812.1 4034.34,750.801 5859.25,2486.8 7684.16,4222.8 10604.1,1406.7 11219.2,-536.699 11834.4,-2480.1 -1186.2,-4768.7 2774.03,-4881.1"
         style="fill:#f4bfbf;fill-opacity:1;fill-rule:nonzero;stroke:none"
         id="path20" />
    </g>
  </g>
</svg>
